<!--?xml version="1.0" standalone="no"?-->
              <svg id="sw-js-blob-svg" viewBox="0 0 100 100" xmlns="http://www.w3.org/2000/svg" version="1.1">
                    <defs> 
                        <linearGradient id="sw-gradient" x1="0" x2="1" y1="1" y2="0">
                            <stop id="stop1" stop-color="rgba(246.64, 246.64, 246.64, 1)" offset="0%"></stop>
                            <stop id="stop2" stop-color="rgba(189.72, 189.72, 189.72, 1)" offset="100%"></stop>
                        </linearGradient>
                    </defs>
                <path fill="url(#sw-gradient)" d="M19.9,-33.8C26.4,-30.7,32.7,-26.6,37,-20.8C41.2,-15,43.3,-7.5,43.5,0.1C43.8,7.8,42.1,15.6,38.4,22.2C34.7,28.9,28.9,34.5,22.1,38.5C15.4,42.5,7.7,45,0.1,44.8C-7.4,44.5,-14.8,41.6,-21.7,37.6C-28.6,33.7,-35,28.8,-39.1,22.4C-43.2,15.9,-45.1,8,-44.9,0.1C-44.7,-7.8,-42.5,-15.5,-38.6,-22.4C-34.8,-29.2,-29.3,-35.2,-22.5,-38.1C-15.8,-41.1,-7.9,-41.2,-0.6,-40.1C6.7,-39,13.4,-36.9,19.9,-33.8Z" width="100%" height="100%" transform="translate(50 50)" stroke-width="0" style="transition: all 0.3s ease 0s;" stroke="url(#sw-gradient)"></path>
              </svg>