<?xml version="1.0" standalone="no"?>
<!DOCTYPE svg PUBLIC "-//W3C//DTD SVG 20010904//EN"
 "http://www.w3.org/TR/2001/REC-SVG-20010904/DTD/svg10.dtd">
<svg version="1.0" xmlns="http://www.w3.org/2000/svg"
 width="328.000000pt" height="328.000000pt" viewBox="0 0 328.000000 328.000000"
 preserveAspectRatio="xMidYMid meet">
<metadata>
Created by potrace 1.16, written by Peter Selinger 2001-2019
</metadata>
<g transform="translate(0.000000,328.000000) scale(0.100000,-0.100000)"
fill="#000000" stroke="none">
<path d="M1684 2746 c-63 -28 -95 -98 -74 -161 10 -32 53 -78 81 -87 9 -3 8
-48 0 -183 -7 -99 -14 -185 -16 -191 -3 -10 -42 -5 -293 41 -26 5 -36 13 -44
36 -16 46 -83 73 -126 50 -14 -8 -32 7 -96 76 -63 70 -76 89 -70 107 26 76
-14 141 -87 141 -34 0 -46 -6 -71 -34 -25 -28 -29 -40 -24 -69 10 -65 72 -105
128 -83 24 9 31 3 106 -78 59 -64 78 -91 71 -102 -11 -18 -11 -80 0 -98 6 -9
-14 -50 -63 -129 l-71 -115 -71 -1 c-68 -1 -77 -4 -140 -50 -8 -7 -25 -1 -52
17 -35 22 -40 31 -39 61 3 91 -93 140 -160 82 -23 -20 -28 -32 -28 -71 0 -39
5 -51 28 -71 32 -28 86 -32 120 -9 20 13 26 12 65 -13 28 -18 40 -32 36 -42
-3 -8 -8 -33 -11 -56 -5 -40 15 -100 48 -145 10 -14 6 -25 -24 -67 -35 -48
-39 -50 -75 -45 -82 11 -152 -50 -152 -132 0 -103 111 -168 197 -115 18 10 40
31 49 45 22 33 22 106 1 138 -15 24 -15 27 23 77 l39 52 81 2 81 2 85 -129 86
-130 -17 -38 c-32 -70 13 -139 90 -139 65 0 110 70 85 131 -17 41 -47 59 -95
59 l-41 0 -88 137 c-71 110 -86 140 -77 153 49 67 52 75 49 136 -3 48 -10 69
-30 96 l-26 34 71 117 c71 117 71 117 110 117 27 0 45 7 64 26 l26 26 156 -27
c86 -15 158 -28 161 -30 4 -2 -4 -166 -19 -412 -1 -7 -7 -13 -14 -13 -7 0 -30
-9 -52 -20 l-39 -20 -22 27 c-18 23 -19 29 -8 53 18 35 2 92 -31 114 -36 24
-89 20 -122 -8 -23 -20 -28 -32 -28 -71 0 -39 5 -51 29 -72 25 -21 37 -24 75
-20 37 4 50 1 68 -15 l21 -20 -24 -45 c-30 -58 -31 -115 -1 -173 25 -49 55
-75 113 -95 l39 -13 3 -146 3 -146 -36 -14 c-98 -41 -99 -200 0 -242 46 -19
61 -18 111 6 104 51 95 186 -16 239 l-35 16 -3 148 c-2 137 -1 147 16 147 31
0 109 56 123 89 8 17 18 31 24 31 5 -1 149 -29 320 -63 l309 -63 7 -33 c14
-65 87 -112 161 -103 40 5 95 60 103 105 9 48 1 78 -30 116 -54 64 -142 65
-203 2 l-36 -37 -308 61 c-170 34 -310 64 -312 66 -2 2 -7 18 -10 34 l-6 30
170 74 171 74 32 -33 c90 -92 233 -76 301 33 53 87 30 208 -50 258 l-32 20 19
67 c26 93 26 92 49 92 81 0 118 118 53 170 -36 28 -85 26 -122 -6 -42 -35 -44
-95 -4 -136 l26 -27 -20 -73 c-18 -66 -22 -73 -44 -71 -49 5 -109 -9 -142 -32
l-35 -23 -21 22 c-19 20 -19 24 -5 66 20 57 7 107 -37 144 -61 52 -128 47
-183 -14 l-35 -39 -93 16 c-51 8 -96 18 -100 22 -7 7 17 370 25 378 3 3 20 12
38 21 91 47 99 172 15 227 -34 23 -86 27 -122 11z m103 -58 c51 -48 15 -138
-56 -138 -47 0 -81 32 -81 79 0 72 84 109 137 59z m319 -602 c58 -49 20 -146
-57 -146 -43 0 -79 39 -79 85 0 74 80 110 136 61z m-252 -50 c53 -10 61 -15
69 -41 25 -77 98 -115 174 -89 43 15 46 15 68 -6 23 -21 23 -24 8 -47 -9 -14
-19 -55 -22 -91 l-6 -66 -165 -71 -165 -72 -44 38 c-24 22 -52 39 -62 39 -13
0 -19 7 -19 23 0 41 21 342 26 375 6 37 -5 36 138 8z m553 -153 c69 -32 97
-113 65 -187 -50 -113 -203 -116 -259 -6 -29 55 -29 76 0 130 39 73 118 99
194 63z m-1388 -77 c87 -45 82 -179 -7 -222 -64 -30 -142 -1 -169 63 -20 50
-9 99 32 140 27 27 41 33 74 33 23 0 55 -7 70 -14z m702 -233 c32 -19 69 -85
69 -122 0 -67 -66 -131 -134 -131 -104 0 -168 108 -121 201 33 63 124 88 186
52z m-943 -189 c29 -33 29 -78 -3 -109 -52 -53 -145 -19 -145 53 0 81 94 116
148 56z m1887 -60 c54 -58 16 -144 -63 -144 -51 0 -84 34 -84 86 0 77 95 114
147 58z m-962 -416 c31 -16 46 -39 47 -70 0 -40 -9 -57 -41 -73 -38 -20 -61
-19 -91 5 -76 59 1 183 85 138z"/>
</g>
</svg>
